# xmcd
#
# Track frame offsets:
#	150
#	2234
#	48658
#
# Disc length: 1347 seconds
#
# Revision: 1
# Processed by: cddbd v1.5.2PL0 Copyright (c) Steve Scherf et al.
# Submitted via: audiograbber 1.83.01
#
DISCID=1f054103
DTITLE=Grateful Dead - 77-05-25 The Mosque, Richmond VA
DYEAR=1900
DGENRE=
TTITLE0=Tuning 2
TTITLE1=Scarlet Begonias
TTITLE2=Fire On The Mountain
EXTD=
EXTT0=
EXTT1=
EXTT2=
PLAYORDER=
